<?xml version="1.0" encoding="utf-8"?>
<!-- Generator: Adobe Illustrator 24.1.0, SVG Export Plug-In . SVG Version: 6.00 Build 0)  -->
<svg version="1.1" id="Capa_1" xmlns="http://www.w3.org/2000/svg" xmlns:xlink="http://www.w3.org/1999/xlink" x="0px" y="0px"
	 viewBox="0 0 16 18" style="enable-background:new 0 0 16 18;" xml:space="preserve">
<style type="text/css">
	.st0{fill:#FFFFFF;}
</style>
<path class="st0" d="M1.8,0C0.8,0,0,0.8,0,1.8v14.5c0,1,0.8,1.8,1.7,1.8h3.5c1,0,1.8-0.8,1.8-1.8V1.8C7,0.8,6.2,0,5.3,0H1.8z"/>
<path class="st0" d="M10.8,0C9.8,0,9,0.8,9,1.8v14.5c0,1,0.8,1.8,1.7,1.8h3.5c1,0,1.7-0.8,1.7-1.8V1.8c0-1-0.8-1.8-1.7-1.8H10.8z"/>
</svg>
